<?xml version="1.0" standalone="no"?><!DOCTYPE svg PUBLIC "-//W3C//DTD SVG 1.1//EN" "http://www.w3.org/Graphics/SVG/1.1/DTD/svg11.dtd"><svg t="1770815984484" class="icon" viewBox="0 0 1024 1024" version="1.1" xmlns="http://www.w3.org/2000/svg" p-id="10240" xmlns:xlink="http://www.w3.org/1999/xlink" width="200" height="200"><path d="M257.3824 755.2H256A115.2 115.2 0 0 1 140.8 640V409.6A115.2 115.2 0 0 1 256 294.4h409.6A115.2 115.2 0 0 1 780.8 409.6v230.4A115.2 115.2 0 0 1 665.6 755.2H387.3792a38.4 38.4 0 1 0 0 76.8H665.6a192 192 0 0 0 192-192V409.6A192 192 0 0 0 665.6 217.6H256A192 192 0 0 0 64 409.6v230.4A192 192 0 0 0 256 832h1.3824a38.4 38.4 0 1 0 0-76.8z" fill="#ffffff" p-id="10241"></path><path d="M460.8 524.8m-51.2 0a51.2 51.2 0 1 0 102.4 0 51.2 51.2 0 1 0-102.4 0Z" fill="#ffffff" p-id="10242"></path><path d="M640 524.8m-51.2 0a51.2 51.2 0 1 0 102.4 0 51.2 51.2 0 1 0-102.4 0Z" fill="#ffffff" p-id="10243"></path><path d="M281.6 524.8m-51.2 0a51.2 51.2 0 1 0 102.4 0 51.2 51.2 0 1 0-102.4 0Z" fill="#ffffff" p-id="10244"></path><path d="M345.9584 159.9488A114.4832 114.4832 0 0 1 409.6 140.8h409.6A115.2 115.2 0 0 1 934.4 256v230.4c0 22.8352-6.656 44.544-18.8416 63.1808a38.4 38.4 0 0 0 64.1536 42.1888A191.2832 191.2832 0 0 0 1011.2 486.4V256A192 192 0 0 0 819.2 64H409.6c-38.2464 0-74.9056 11.264-106.0864 31.9488a38.4 38.4 0 0 0 42.496 64zM294.4 793.6a38.4 38.4 0 1 0-76.8 0v102.4a38.4 38.4 0 0 0 61.952 30.3104l131.4304-102.144a38.4 38.4 0 0 0-47.104-60.6208L294.4 817.5104V793.6z" fill="#ffffff" p-id="10245"></path></svg>