<svg xmlns="http://www.w3.org/2000/svg" width="483" height="365" viewBox="0 0 483 365">
  <path d="M 73.00 287.50 L 63.00 286.50 L 58.50 279.00 L 58.50 233.00 L 40.00 232.50 L 27.00 227.50 L 14.50 216.00 L 9.50 207.00 L 7.50 200.00 L 7.50 99.00 L 6.50 98.00 L 7.50 95.00 L 6.50 93.00 L 7.50 91.00 L 6.50 85.00 L 7.50 34.00 L 10.50 25.00 L 15.50 17.00 L 26.00 7.50 L 34.00 3.50 L 46.00 0.50 L 269.00 0.50 L 281.00 3.50 L 292.00 10.50 L 300.50 20.00 L 306.50 35.00 L 306.00 56.50 L 237.00 56.50 L 232.50 60.00 L 158.50 151.00 L 158.50 232.00 L 129.00 233.50 L 73.50 287.00 L 73.00 287.50 Z" fill="#2b2b2a" fill-rule="evenodd" clip-rule="evenodd"/>
  <path d="M 306.00 132.50 L 279.50 103.00 L 253.50 71.00 L 274.00 70.50 L 275.00 69.50 L 306.50 70.00 L 306.50 132.00 L 306.00 132.50 Z" fill="#3f3f3e" fill-rule="evenodd" clip-rule="evenodd"/>
  <path d="M 410.00 361.50 L 402.00 361.50 L 396.00 357.50 L 344.00 307.50 L 209.00 307.50 L 196.00 303.50 L 187.00 297.50 L 178.50 288.00 L 172.50 275.00 L 171.50 247.00 L 173.00 245.50 L 242.00 245.50 L 318.50 155.00 L 320.50 152.00 L 320.50 70.00 L 434.00 69.50 L 439.00 70.50 L 454.00 78.50 L 462.50 87.00 L 469.50 101.00 L 470.50 105.00 L 470.50 228.00 L 471.50 229.00 L 470.50 272.00 L 468.50 279.00 L 463.50 288.00 L 451.00 300.50 L 441.00 305.50 L 433.00 307.50 L 417.50 308.00 L 417.50 351.00 L 415.50 357.00 L 410.50 361.00 L 410.00 361.50 Z M 404.50 348.00 L 404.50 298.00 L 405.50 296.00 L 410.00 294.50 L 437.00 293.50 L 445.00 289.50 L 452.50 282.00 L 457.50 272.00 L 458.50 267.00 L 458.50 109.00 L 457.50 105.00 L 452.50 95.00 L 444.00 86.50 L 431.00 81.50 L 333.50 82.00 L 333.50 155.00 L 307.50 187.00 L 306.50 201.00 L 299.50 216.00 L 287.00 227.50 L 278.00 231.50 L 270.00 232.50 L 247.00 258.50 L 184.00 258.50 L 184.50 271.00 L 186.50 277.00 L 196.00 288.50 L 202.00 292.50 L 213.00 295.50 L 246.00 295.50 L 247.00 294.50 L 257.00 294.50 L 258.00 295.50 L 259.00 294.50 L 267.00 295.50 L 269.00 294.50 L 292.00 294.50 L 293.00 295.50 L 294.00 294.50 L 298.00 295.50 L 347.00 294.50 L 350.00 295.50 L 404.00 348.50 L 404.50 348.00 Z" fill="#3f3f3e" fill-rule="evenodd" clip-rule="evenodd"/>
  <path d="M 224.00 232.50 L 171.50 232.00 L 171.50 172.00 L 173.00 171.50 L 177.50 176.00 L 224.50 232.00 L 224.00 232.50 Z" fill="#3f3f3e" fill-rule="evenodd" clip-rule="evenodd"/>
</svg>