<?xml version="1.0" standalone="no"?><!DOCTYPE svg PUBLIC "-//W3C//DTD SVG 1.1//EN" "http://www.w3.org/Graphics/SVG/1.1/DTD/svg11.dtd"><svg t="1770815707585" class="icon" viewBox="0 0 1024 1024" version="1.1" xmlns="http://www.w3.org/2000/svg" p-id="9174" xmlns:xlink="http://www.w3.org/1999/xlink" width="200" height="200"><path d="M512 1024h-3.584C227.6864 1024 0 796.3648 0 515.584v-7.168C0 227.6864 227.6352 0 508.416 0h7.168C796.3136 0 1024 227.6352 1024 508.416v41.6768a51.2 51.2 0 1 1-102.4 0v-41.6256A406.016 406.016 0 0 0 515.584 102.4h-7.168A406.016 406.016 0 0 0 102.4 508.416v7.168A406.016 406.016 0 0 0 508.416 921.6H512a51.2 51.2 0 1 1 0 102.4zM460.8 512a102.4 102.4 0 1 1-204.8 0 102.4 102.4 0 0 1 204.8 0z m277.1968 72.3968a102.4 102.4 0 1 1 0-144.7936L665.6 512l72.3968 72.3968zM844.8 665.6a51.2 51.2 0 0 0-51.2 51.2v76.8H716.8a51.2 51.2 0 1 0 0 102.4h76.8V972.8a51.2 51.2 0 1 0 102.4 0v-76.8H972.8a51.2 51.2 0 1 0 0-102.4h-76.8V716.8a51.2 51.2 0 0 0-51.2-51.2z" fill="#ffffff" p-id="9175"></path></svg>