<?xml version="1.0" standalone="no"?><!DOCTYPE svg PUBLIC "-//W3C//DTD SVG 1.1//EN" "http://www.w3.org/Graphics/SVG/1.1/DTD/svg11.dtd"><svg t="1770867066114" class="icon" viewBox="0 0 1024 1024" version="1.1" xmlns="http://www.w3.org/2000/svg" p-id="3570" xmlns:xlink="http://www.w3.org/1999/xlink" width="200" height="200"><path d="M216 768 128 768 128 682.666666 216 682.666666 216 768 216 768 216 768ZM312 768 896 768 896 682.666666 312 682.666666 312 768 312 768 312 768ZM216 554.666666 128 554.666666 128 469.333334 216 469.333334 216 554.666666 216 554.666666 216 554.666666ZM312 554.666666 896 554.666666 896 469.333334 312 469.333334 312 554.666666 312 554.666666 312 554.666666ZM216 341.333334 128 341.333334 128 256 216 256 216 341.333334 216 341.333334 216 341.333334ZM312 341.333334 896 341.333334 896 256 312 256 312 341.333334 312 341.333334 312 341.333334Z" fill="#ffffff" p-id="3571"></path></svg>